<svg width="43" height="43" viewBox="0 0 43 43" fill="none" xmlns="http://www.w3.org/2000/svg">
<g id="Airbnb">
<path id="Path" d="M21.0723 0.0361328C9.48945 0.0361328 0.0722656 9.45332 0.0722656 21.0361C0.0722656 32.6189 9.48945 42.0361 21.0723 42.0361C32.6551 42.0361 42.0723 32.6189 42.0723 21.0361C42.0723 9.45332 32.6551 0.0361328 21.0723 0.0361328Z" fill="#FF5A5F"/>
<path id="vector" d="M21.0723 26.5662C19.6955 24.8344 18.8856 23.3163 18.6156 22.0174C18.3457 20.9621 18.4537 20.1232 18.9126 19.5009C19.3985 18.7703 20.1274 18.4185 21.0723 18.4185C22.0171 18.4185 22.746 18.7703 23.2319 19.5009C23.6909 20.1232 23.7988 20.9621 23.5289 22.0174C23.2319 23.3434 22.4221 24.8587 21.0723 26.5662ZM28.6095 30.5711C26.3149 31.5723 24.0445 29.9757 22.1008 27.811C25.316 23.7763 25.9099 20.6374 24.5304 18.6052C23.7206 17.4416 22.5597 16.8734 21.0723 16.8734C18.0757 16.8734 16.4263 19.417 17.0742 22.3692C17.4521 23.9657 18.451 25.7815 20.0437 27.811C18.8491 29.1379 17.2817 30.6432 15.4004 30.8146C12.6739 31.2205 10.5385 28.5686 11.5103 25.8329L18.424 11.4857C19.014 10.4072 19.7423 9.48331 21.0696 9.48331C22.0414 9.48331 22.7973 10.0516 23.1212 10.5116L30.6288 25.8329C31.3643 27.6841 30.4315 29.7824 28.6095 30.5711ZM32.092 25.2917L25.6643 11.8916C24.4494 9.40213 23.5856 7.91113 21.0723 7.91113C18.5887 7.91113 17.5331 9.64296 16.4533 11.8916L10.0526 25.2917C8.67579 29.0828 11.5103 32.4111 14.9415 32.4111C15.1575 32.4111 15.3719 32.3841 15.5894 32.3841C17.3711 32.1676 19.2096 31.0311 21.0723 28.9989C22.935 31.0284 24.7734 32.1676 26.5551 32.3841C26.7726 32.3841 26.987 32.4111 27.203 32.4111C30.6342 32.4138 33.4687 29.0828 32.092 25.2917Z" fill="white"/>
</g>
</svg>
