<svg width="42" height="40" viewBox="0 0 42 40" fill="none" xmlns="http://www.w3.org/2000/svg">
<g id="autodesk">
<path id="vector" d="M30.7238 39.5348L14.5071 2.09689C14.2277 1.45949 13.7799 0.637066 12.6208 0.637066C11.585 0.637066 11.0916 1.12597 10.813 1.65167C10.957 1.27257 11.393 0.536145 12.6567 0.536145H23.8491C24.8805 0.536145 25.3753 1.12848 25.6008 1.67079L42 39.5348H30.7238Z" fill="url(#paint0_linear_58_292)"/>
<path id="vector_2" d="M10.813 1.65163L0.539116 25.5695C0.226246 26.3314 9.15527e-05 26.7861 9.15527e-05 27.3907C9.15527e-05 28.474 0.844078 29.5601 2.9734 29.5601H10.0233L18.2158 10.6586L14.5071 2.09685C14.2277 1.45945 13.7799 0.637024 12.6208 0.637024C11.585 0.637024 11.0916 1.12595 10.813 1.65163Z" fill="url(#paint1_linear_58_292)"/>
<path id="vector_3" d="M2.97336 29.5602L26.3641 29.5601L12.7899 37.7603C12.1283 38.142 9.6118 39.5362 7.84623 39.5362C6.70808 39.5362 6.11676 39.1175 5.54897 38.1452L0.363017 28.7703C0.00576275 28.0985 0 27.8747 0 27.3908C0 28.4741 0.844039 29.5602 2.97336 29.5602Z" fill="url(#paint2_linear_58_292)"/>
</g>
<defs>
<linearGradient id="paint0_linear_58_292" x1="18.074" y1="1.26241" x2="21.5524" y2="9.75671" gradientUnits="userSpaceOnUse">
<stop stop-color="#29A5E3"/>
<stop offset="0.515" stop-color="#356EB9"/>
<stop offset="1" stop-color="#394DA5"/>
</linearGradient>
<linearGradient id="paint1_linear_58_292" x1="15.5799" y1="3.75584" x2="13.2128" y2="9.45641" gradientUnits="userSpaceOnUse">
<stop stop-color="#236736"/>
<stop offset="0.493" stop-color="#6BA443"/>
<stop offset="1" stop-color="#86C146"/>
</linearGradient>
<linearGradient id="paint2_linear_58_292" x1="3.25951" y1="33.6266" x2="8.22795" y2="32.6114" gradientUnits="userSpaceOnUse">
<stop stop-color="#2B7A77"/>
<stop offset="0.51" stop-color="#4EBAA9"/>
<stop offset="1" stop-color="#5CC2B1"/>
</linearGradient>
</defs>
</svg>
