<svg width="35" height="31" viewBox="0 0 35 31" fill="none" xmlns="http://www.w3.org/2000/svg">
<g id="Frame 2">
<path id="Vector" d="M0 2.62115C0 1.17353 1.17353 0 2.62115 0C4.06876 0 5.24228 1.17353 5.24228 2.62115V19.2654H0V2.62115Z" fill="#635EFF"/>
<path id="Vector_2" fill-rule="evenodd" clip-rule="evenodd" d="M9.81216 7.48483C9.13841 8.09624 8.71534 8.97888 8.71534 9.96038C8.71534 11.1226 9.30863 12.1463 10.2088 12.745C7.3527 13.399 5.24228 15.9362 5.24228 18.9378C5.24228 21.9395 7.3527 24.4766 10.2088 25.1306C9.30863 25.7293 8.71534 26.753 8.71534 27.9152C8.71534 28.8967 9.13841 29.7794 9.81216 30.3908C4.26281 29.5094 0 24.7315 0 18.9378C0 13.1441 4.26281 8.36623 9.81216 7.48483Z" fill="#635EFF"/>
<path id="Vector_3" fill-rule="evenodd" clip-rule="evenodd" d="M12.4505 12.5815C16.0152 12.5815 18.8723 15.4453 18.8723 18.9378C18.8723 22.4304 16.0152 25.2941 12.4505 25.2941C11.0029 25.2941 9.82935 26.4676 9.82935 27.9153C9.82935 29.3629 11.0029 30.5364 12.4505 30.5364C18.8744 30.5364 24.1146 25.3615 24.1146 18.9378C24.1146 12.5142 18.8744 7.33923 12.4505 7.33923C11.0029 7.33923 9.82935 8.51275 9.82935 9.96036C9.82935 11.408 11.0029 12.5815 12.4505 12.5815Z" fill="#635EFF"/>
<path id="Vector_4" fill-rule="evenodd" clip-rule="evenodd" d="M31.9781 12.5815C28.4134 12.5815 25.5563 15.4453 25.5563 18.9378C25.5563 22.4304 28.4134 25.2941 31.9781 25.2941C33.4257 25.2941 34.5992 26.4676 34.5992 27.9153C34.5992 29.3629 33.4257 30.5364 31.9781 30.5364C25.5542 30.5364 20.314 25.3615 20.314 18.9378C20.314 12.5142 25.5542 7.33923 31.9781 7.33923C33.4257 7.33923 34.5992 8.51275 34.5992 9.96036C34.5992 11.408 33.4257 12.5815 31.9781 12.5815Z" fill="#635EFF"/>
</g>
</svg>
