<svg width="40" height="40" viewBox="0 0 40 40" fill="none" xmlns="http://www.w3.org/2000/svg">
<g id="slack">
<path id="vector" d="M35.8226 18.5358C37.8935 18.5358 39.5723 16.857 39.5723 14.7861C39.5723 12.7152 37.8933 11.0364 35.8224 11.0364C33.7514 11.0364 32.0723 12.7154 32.0723 14.7864V18.5358H35.8226ZM25.3223 18.5358C27.3933 18.5358 29.0723 16.8569 29.0723 14.7858V4.28644C29.0723 2.21537 27.3933 0.536438 25.3223 0.536438C23.2512 0.536438 21.5723 2.21537 21.5723 4.28644V14.7858C21.5723 16.8569 23.2512 18.5358 25.3223 18.5358Z" fill="#2EB67D"/>
<path id="vector_2" d="M4.32194 21.5365C2.25105 21.5365 0.572268 23.2153 0.572268 25.2861C0.572268 27.357 2.25121 29.0358 4.32211 29.0358C6.39317 29.0358 8.07227 27.3569 8.07227 25.2858V21.5365H4.32194ZM14.8223 21.5365C12.7512 21.5365 11.0723 23.2154 11.0723 25.2865V35.7858C11.0723 37.8569 12.7512 39.5358 14.8223 39.5358C16.8933 39.5358 18.5723 37.8569 18.5723 35.7858V25.2865C18.5723 23.2154 16.8933 21.5365 14.8223 21.5365Z" fill="#E01E5A"/>
<path id="vector_3" d="M21.5725 35.7865C21.5725 37.8573 23.2513 39.5361 25.3222 39.5361C27.3931 39.5361 29.0719 37.8572 29.0719 35.7863C29.0719 33.7152 27.393 32.0361 25.3219 32.0361L21.5725 32.0361L21.5725 35.7865ZM21.5725 25.2861C21.5725 27.3572 23.2515 29.0361 25.3225 29.0361L35.8219 29.0361C37.893 29.0361 39.5719 27.3572 39.5719 25.2861C39.5719 23.2151 37.893 21.5361 35.8219 21.5361L25.3225 21.5361C23.2515 21.5361 21.5725 23.2151 21.5725 25.2861Z" fill="#ECB22E"/>
<path id="vector_4" d="M18.5719 4.28581C18.5719 2.21492 16.8931 0.536134 14.8222 0.536133C12.7513 0.536133 11.0725 2.21508 11.0725 4.28597C11.0725 6.35704 12.7514 8.03613 14.8225 8.03613L18.5719 8.03613L18.5719 4.28581ZM18.5719 14.7861C18.5719 12.7151 16.8929 11.0361 14.8219 11.0361L4.32251 11.0361C2.25144 11.0361 0.57251 12.7151 0.57251 14.7861C0.57251 16.8572 2.25144 18.5361 4.32251 18.5361L14.8219 18.5361C16.8929 18.5361 18.5719 16.8572 18.5719 14.7861Z" fill="#36C5F0"/>
</g>
</svg>
