<svg width="22" height="18" viewBox="0 0 22 18" fill="none" xmlns="http://www.w3.org/2000/svg">
<g id="meet">
<path id="Vector" d="M3.05176e-05 16.56C3.05176e-05 17.3556 0.65001 18 1.45084 18H1.47169C0.6586 18 3.05176e-05 17.3556 3.05176e-05 16.56Z" fill="#FBBC05"/>
<path id="Vector_2" d="M12.4675 5.39997V9.15955L17.5361 5.07118V1.43999C17.5361 0.644397 16.8861 0 16.0853 0H5.10423L5.09442 5.39997H12.4675Z" fill="#FBBC05"/>
<path id="Vector_3" d="M12.4675 12.9207H5.08216L5.07358 18.0003H16.0853C16.8873 18.0003 17.5361 17.3559 17.5361 16.5603V13.2819L12.4675 9.16113V12.9207Z" fill="#34A853"/>
<path id="Vector_4" d="M5.10422 0L0 5.39997H5.09563L5.10422 0Z" fill="#EA4335"/>
<path id="Vector_5" d="M3.05176e-05 12.9204V16.56C3.05176e-05 17.3556 0.6586 18 1.47169 18H5.07359L5.08217 12.9204H3.05176e-05Z" fill="#1967D2"/>
<path id="Vector_6" d="M5.09566 5.39996H3.05176e-05V12.9203H5.08217L5.09566 5.39996Z" fill="#4285F4"/>
<path id="Vector_7" d="M21.9928 15.2799V2.91994C21.7071 1.27955 19.908 3.15994 19.908 3.15994L17.5374 5.07153V13.2807L20.9308 16.0395C22.1559 16.2003 21.9928 15.2799 21.9928 15.2799Z" fill="#34A853"/>
<path id="Vector_8" d="M12.4674 9.15957L17.5373 13.2815V5.07239L12.4674 9.15957Z" fill="#188038"/>
</g>
</svg>
