<svg width="53" height="53" viewBox="0 0 53 53" fill="none" xmlns="http://www.w3.org/2000/svg">
<g id="fi_8262915" clip-path="url(#clip0_11002_9940)">
<g id="Group">
<g id="Group_2">
<path id="Vector" d="M12.5042 20.3211C6.94197 25.8833 6.94197 34.9338 12.5042 40.496L32.6792 20.321C27.1171 14.7589 18.0666 14.7588 12.5042 20.3211Z" fill="#E6FFFF"/>
</g>
<g id="Group_3">
<path id="Vector_2" d="M28.8947 16.1494H19.5343L11.9556 21.097V41.0446L22.3188 34.8437L32.5042 20.4959L28.8947 16.1494Z" fill="#0BAB7C"/>
<path id="Vector_3" d="M32.5042 20.4961L11.9556 41.0448V43.7232H28.8947L30.7273 41.6873L34.703 27.4405L33.5957 21.8104L32.5042 20.4961Z" fill="#0BAB7C"/>
</g>
<g id="Group_4">
<path id="Vector_4" d="M28.8947 16.1493L33.5957 21.8101L29.3063 0H11.9556V21.0969L19.5343 16.1493H28.8947Z" fill="#0BAB7C"/>
</g>
<path id="Vector_5" d="M29.3064 0H46.6572V46.7791H29.3064V0Z" fill="#0BAB7C"/>
<g id="Group_5">
<g id="Group_6">
<path id="Vector_6" d="M52.9999 52.9998V16.2361L46.4511 13.3672L42.9846 6.2207H35.6491L30.2524 25.5596L35.6491 52.9998H52.9999Z" fill="#D9F2FF"/>
<path id="Vector_7" d="M42.9846 6.2207L53 16.236H42.9846V6.2207Z" fill="#CCDDFF"/>
<g id="Group_7">
<path id="Vector_8" d="M46.4425 25.5675V22.457H35.6491L33.1475 24.0076L35.6491 25.5675H46.4425Z" fill="#BCCBFF"/>
<path id="Vector_9" d="M46.4424 31.7887V28.6782H35.649L32.5386 30.2334L35.649 31.7887H46.4424Z" fill="#BCCBFF"/>
<path id="Vector_10" d="M46.4424 38.0865V34.9761H35.649L32.5386 36.5313L35.649 38.0865H46.4424Z" fill="#BCCBFF"/>
<path id="Vector_11" d="M37.7947 41.3911H46.4425V44.5016H37.7947V41.3911Z" fill="#BCCBFF"/>
</g>
</g>
</g>
<g id="Group_8">
<path id="Vector_12" d="M33.7815 22.0337L35.6491 24.2827V6.2207H18.2983V16.9558C19.1047 16.4293 20.0469 16.149 21.0099 16.149H21.2451C26.0911 16.1491 30.6855 18.3057 33.7815 22.0337Z" fill="#E6FFFF"/>
<path id="Vector_13" d="M18.2983 43.7227V52.9998H35.6491V36.2188L31.7867 40.5096C29.9457 42.5548 27.3232 43.7227 24.5714 43.7227H18.2983Z" fill="#E6FFFF"/>
</g>
<g id="Group_9">
<path id="Vector_14" d="M23.2445 16.1494H21.0099C20.0469 16.1494 19.1047 16.4297 18.2983 16.9562V34.7017L25.1476 30.2341L32.5041 20.4959C30.2173 17.7424 26.8237 16.1494 23.2445 16.1494Z" fill="#E6FFFF"/>
<path id="Vector_15" d="M18.2983 34.7018V43.7232H23.8888C27.0976 43.7232 30.1788 42.4666 32.4723 40.2225C35.0659 37.685 36.4037 34.1297 36.1264 30.5119L35.9477 28.18C35.7534 25.6449 34.7766 23.2326 33.1522 21.2766L32.504 20.4961L18.2983 34.7018Z" fill="#D9F2FF"/>
</g>
<g id="Group_10">
<path id="Vector_16" d="M24.856 22.4575V25.568H27.4323L30.5427 24.0127V22.4575H24.856Z" fill="#D9F2FF"/>
<path id="Vector_17" d="M27.4324 25.568H35.6494V22.4575H30.5428L27.4324 25.568Z" fill="#CCDDFF"/>
</g>
<path id="Vector_18" d="M24.856 28.6787H36.8488V31.7891H24.856V28.6787Z" fill="#CCDDFF"/>
<path id="Vector_19" d="M24.856 34.9766H35.6493V38.087H24.856V34.9766Z" fill="#CCDDFF"/>
<g id="Group_11">
<g id="Group_12">
<path id="Vector_20" d="M12.0275 40.609L9.55698 37.4448L0 47.0017L2.99905 50.0008L8.33239 47.3084L12.2289 40.7709L12.0275 40.609Z" fill="#4BD9AF"/>
<path id="Vector_21" d="M2.99902 50.0009L5.99808 52.9999L15.5551 43.4429L12.2289 40.771L2.99902 50.0009Z" fill="#19BD8D"/>
</g>
<g id="Group_13">
<path id="Vector_22" d="M13.4031 39.5968C8.33662 34.5302 8.33662 26.2864 13.4031 21.2198C15.9367 18.6863 19.2636 17.42 22.5917 17.42C25.9188 17.42 29.2472 18.6869 31.7801 21.2198L33.8818 21.5236L33.976 19.024C27.6987 12.7466 17.4847 12.7466 11.2073 19.024C4.92992 25.3014 4.92992 35.5152 11.2073 41.7926L13.9134 42.4553L13.4031 39.5968Z" fill="#B3D4DF"/>
<path id="Vector_23" d="M33.9761 19.0239L31.7802 21.2198C36.8466 26.2864 36.8466 34.5302 31.7802 39.5967C26.7136 44.6632 18.4698 44.6632 13.4032 39.5967L11.2073 41.7926C14.346 44.9313 18.4688 46.5006 22.5916 46.5006C26.7144 46.5006 30.8373 44.9312 33.976 41.7926C40.2533 35.5152 40.2533 25.3012 33.9761 19.0239Z" fill="#91B0C5"/>
</g>
</g>
</g>
</g>
<defs>
<clipPath id="clip0_11002_9940">
<rect width="53" height="53" fill="white"/>
</clipPath>
</defs>
</svg>
