<svg width="17" height="25" viewBox="0 0 17 25" fill="none" xmlns="http://www.w3.org/2000/svg">
<g id="Figma-logo">
<path id="path0_fill" d="M4.61111 24.162C6.75778 24.162 8.5 22.4201 8.5 20.2739V16.3858H4.61111C2.46444 16.3858 0.722221 18.1277 0.722221 20.2739C0.722221 22.4201 2.46444 24.162 4.61111 24.162Z" fill="#0ACF83"/>
<path id="path1_fill" d="M0.722221 12.4977C0.722221 10.3514 2.46444 8.60955 4.61111 8.60955H8.5V16.3858H4.61111C2.46444 16.3858 0.722221 14.6439 0.722221 12.4977Z" fill="#A259FF"/>
<path id="path1_fill_1_" d="M0.722221 4.72144C0.722221 2.57521 2.46444 0.833332 4.61111 0.833332H8.5V8.60955H4.61111C2.46444 8.60955 0.722221 6.86768 0.722221 4.72144Z" fill="#F24E1E"/>
<path id="path2_fill" d="M8.5 0.833332H12.3889C14.5356 0.833332 16.2778 2.57521 16.2778 4.72144C16.2778 6.86768 14.5356 8.60955 12.3889 8.60955H8.5V0.833332Z" fill="#FF7262"/>
<path id="path3_fill" d="M16.2778 12.4977C16.2778 14.6439 14.5356 16.3858 12.3889 16.3858C10.2422 16.3858 8.5 14.6439 8.5 12.4977C8.5 10.3514 10.2422 8.60955 12.3889 8.60955C14.5356 8.60955 16.2778 10.3514 16.2778 12.4977Z" fill="#1ABCFE"/>
</g>
</svg>
