<svg width="61" height="16" viewBox="0 0 61 16" fill="none" xmlns="http://www.w3.org/2000/svg">
<g id="Jobit">
<path d="M3.96 15.59C6.952 15.59 9.13 13.962 9.13 10.508V0.652034H5.984V10.464C5.984 11.872 5.082 12.818 3.696 12.818C2.684 12.818 1.936 12.312 1.364 11.762L0 14.138C1.056 15.172 2.464 15.59 3.96 15.59Z" fill="#0BAB7C"/>
<path d="M18.9932 15.59C23.4152 15.59 26.6492 12.422 26.6492 8.00003C26.6492 3.57803 23.4152 0.410034 18.9932 0.410034C14.5492 0.410034 11.3152 3.57803 11.3152 8.00003C11.3152 12.422 14.5492 15.59 18.9932 15.59ZM18.9932 12.818C16.2652 12.818 14.5272 10.728 14.5272 8.00003C14.5272 5.25003 16.2652 3.18203 18.9932 3.18203C21.6992 3.18203 23.4372 5.25003 23.4372 8.00003C23.4372 10.728 21.6992 12.818 18.9932 12.818Z" fill="#0BAB7C"/>
<path d="M36.8055 15.326C39.6215 15.326 41.0735 13.566 41.0735 11.344C41.0735 9.51803 39.8415 8.00004 38.2575 7.75804C39.6435 7.47203 40.7875 6.21803 40.7875 4.39204C40.7875 2.43403 39.3575 0.652034 36.5635 0.652034H28.8415V15.326H36.8055ZM35.8815 6.48204H31.9655V3.40203H35.8815C36.9375 3.40203 37.5975 4.04003 37.5975 4.94203C37.5975 5.88803 36.9375 6.48204 35.8815 6.48204ZM36.0135 12.576H31.9655V9.23203H36.0135C37.2235 9.23203 37.8835 9.98004 37.8835 10.904C37.8835 11.96 37.1795 12.576 36.0135 12.576Z" fill="#0BAB7C"/>
<path d="M46.5534 15.326V0.652034H43.4294V15.326H46.5534Z" fill="#0BAB7C"/>
<path d="M56.0005 15.326V3.40203H60.2685V0.652034H48.5645V3.40203H52.8545V15.326H56.0005Z" fill="#0BAB7C"/>
</g>
</svg>
