<svg width="25" height="23" viewBox="0 0 25 23" fill="none" xmlns="http://www.w3.org/2000/svg">
<g id="Sketch_Logo">
<path id="Path" d="M5.91398 1.50942L12.4765 0.805557L19.039 1.50942L24.1196 8.42872L12.4765 22.1838L0.833332 8.42872L5.91398 1.50942Z" fill="#FDB300"/>
<g id="Group">
<path id="Path_2" d="M5.54939 8.42872L12.4765 22.1838L0.833332 8.42872H5.54939Z" fill="#EA6C00"/>
<path id="Path_3" d="M19.4036 8.42872L12.4765 22.1838L24.1196 8.42872H19.4036Z" fill="#EA6C00"/>
<path id="Path_4" d="M5.54939 8.42872H19.4036L12.4765 22.1838L5.54939 8.42872Z" fill="#FDAD00"/>
</g>
<g id="Group_2">
<path id="Path_5" d="M12.4765 0.805557L5.91396 1.50941L5.54939 8.42871L12.4765 0.805557Z" fill="#FDD231"/>
<path id="Path_6" d="M12.4765 0.805557L19.039 1.50941L19.4035 8.42871L12.4765 0.805557Z" fill="#FDD231"/>
<path id="Path_7" d="M24.1196 8.42871L19.039 1.50941L19.4036 8.42871H24.1196Z" fill="#FDAD00"/>
<path id="Path_8" d="M0.833332 8.42871L5.91396 1.50941L5.54939 8.42871H0.833332Z" fill="#FDAD00"/>
<path id="Path_9" d="M12.4765 0.805557L5.54939 8.42871H19.4036L12.4765 0.805557Z" fill="#FEEEB7"/>
</g>
</g>
</svg>
